<?xml version="1.0" encoding="UTF-8"?>
<!DOCTYPE svg PUBLIC "-//W3C//DTD SVG 1.1//EN" "http://www.w3.org/Graphics/SVG/1.1/DTD/svg11.dtd">
<svg xmlns="http://www.w3.org/2000/svg" version="1.1" width="2154px" height="616px" style="shape-rendering:geometricPrecision; text-rendering:geometricPrecision; image-rendering:optimizeQuality; fill-rule:evenodd; clip-rule:evenodd" xmlns:xlink="http://www.w3.org/1999/xlink">
<g><path style="opacity:0.991" fill="#fefffe" d="M 657.5,-0.5 C 708.833,-0.5 760.167,-0.5 811.5,-0.5C 822.885,22.6025 834.551,45.6025 846.5,68.5C 789.503,69.3333 732.503,69.8333 675.5,70C 619.039,70.377 581.372,97.0437 562.5,150C 552.96,192.04 563.293,228.373 593.5,259C 614.272,277.265 638.606,286.932 666.5,288C 758.835,288.167 851.168,288.667 943.5,289.5C 954.074,312.393 964.74,335.227 975.5,358C 868.833,358.667 762.167,358.667 655.5,358C 606.724,354.858 565.557,335.691 532,300.5C 484.441,243.349 473.441,179.682 499,109.5C 525.243,52.2551 569.076,16.7551 630.5,3C 639.617,1.5694 648.617,0.40273 657.5,-0.5 Z"/></g>
<g><path style="opacity:0.983" fill="#fefffe" d="M 884.5,-0.5 C 908.167,-0.5 931.833,-0.5 955.5,-0.5C 992.974,73.1134 1030.47,146.78 1068,220.5C 1106.18,146.807 1144.35,73.1399 1182.5,-0.5C 1205.5,-0.5 1228.5,-0.5 1251.5,-0.5C 1191.15,122.536 1129.98,245.203 1068,367.5C 1006.02,245.203 944.851,122.536 884.5,-0.5 Z"/></g>
<g><path style="opacity:0.987" fill="#fefffe" d="M 1415.5,-0.5 C 1426.5,-0.5 1437.5,-0.5 1448.5,-0.5C 1511.27,6.6284 1558.77,37.2951 1591,91.5C 1614.05,136.168 1619.05,182.835 1606,231.5C 1590.38,278.122 1561.21,313.622 1518.5,338C 1479.9,357.576 1439.23,363.576 1396.5,356C 1351.27,346.481 1314.44,323.647 1286,287.5C 1250.02,235.002 1241.69,178.335 1261,117.5C 1289.8,48.3582 1341.3,9.02489 1415.5,-0.5 Z M 1424.5,69.5 C 1474.78,70.2096 1510.61,93.2096 1532,138.5C 1547.27,180.946 1540.27,219.279 1511,253.5C 1472.54,290.991 1429.04,298.158 1380.5,275C 1334.29,245.739 1316.79,204.239 1328,150.5C 1339.98,112.521 1364.81,87.0214 1402.5,74C 1409.88,72.0241 1417.22,70.5241 1424.5,69.5 Z"/></g>
<g><path style="opacity:0.989" fill="#fefffe" d="M 1659.5,-0.5 C 1683.83,-0.5 1708.17,-0.5 1732.5,-0.5C 1732.5,119.167 1732.5,238.833 1732.5,358.5C 1708.17,358.5 1683.83,358.5 1659.5,358.5C 1659.5,238.833 1659.5,119.167 1659.5,-0.5 Z"/></g>
<g><path style="opacity:0.988" fill="#fefffe" d="M 1957.5,-0.5 C 1967.5,-0.5 1977.5,-0.5 1987.5,-0.5C 2047.28,6.13165 2093.78,34.465 2127,84.5C 2143.47,112.716 2152.3,143.049 2153.5,175.5C 2153.5,236.5 2153.5,297.5 2153.5,358.5C 2129.17,358.5 2104.83,358.5 2080.5,358.5C 2080.67,297.499 2080.5,236.499 2080,175.5C 2073.95,118.778 2043.11,83.9443 1987.5,71C 1945.96,67.5181 1912.13,82.0181 1886,114.5C 1872.85,133.731 1865.85,155.064 1865,178.5C 1864.5,238.499 1864.33,298.499 1864.5,358.5C 1840.17,358.5 1815.83,358.5 1791.5,358.5C 1791.33,297.166 1791.5,235.832 1792,174.5C 1795.28,106.065 1826.45,54.8982 1885.5,21C 1908.19,9.04231 1932.19,1.87564 1957.5,-0.5 Z"/></g>
<g><path style="opacity:0.989" fill="#fefffe" d="M -0.5,354.5 C -0.5,353.833 -0.5,353.167 -0.5,352.5C 15.0199,329.313 30.6865,306.146 46.5,283C 146.833,282.667 247.167,282.333 347.5,282C 365.308,277.191 375.808,265.691 379,247.5C 379.667,203.167 379.667,158.833 379,114.5C 375.076,94.243 362.909,82.4096 342.5,79C 268.834,78.5 195.167,78.3333 121.5,78.5C 121.5,123.833 121.5,169.167 121.5,214.5C 97.8333,214.5 74.1667,214.5 50.5,214.5C 50.5,145.5 50.5,76.5 50.5,7.5C 150.834,7.33334 251.167,7.5 351.5,8C 402.153,15.6533 434.319,44.1533 448,93.5C 448.853,97.4686 449.519,101.469 450,105.5C 450.167,130.667 450.333,155.833 450.5,181C 450.636,208.529 450.136,236.029 449,263.5C 436.321,316.761 402.821,346.927 348.5,354C 232.167,354.5 115.834,354.667 -0.5,354.5 Z"/></g>
<g><path style="opacity:0.988" fill="#fefffe" d="M 658.5,144.5 C 721.167,144.5 783.833,144.5 846.5,144.5C 846.5,167.833 846.5,191.167 846.5,214.5C 783.833,214.5 721.167,214.5 658.5,214.5C 658.5,191.167 658.5,167.833 658.5,144.5 Z"/></g>
<g><path style="opacity:0.95" fill="#fefffe" d="M 1423.5,615.5 C 1420.5,615.5 1417.5,615.5 1414.5,615.5C 1401.08,614.474 1388.41,610.64 1376.5,604C 1375.31,602.981 1374.31,601.814 1373.5,600.5C 1375.98,595.044 1378.65,589.711 1381.5,584.5C 1398.43,596.588 1416.77,599.421 1436.5,593C 1443.59,587.259 1444.26,580.926 1438.5,574C 1436.5,573 1434.5,572 1432.5,571C 1420.8,567.793 1409.13,564.46 1397.5,561C 1380.19,554.889 1373.36,542.723 1377,524.5C 1381.53,510.639 1391.03,502.472 1405.5,500C 1424.05,496.425 1441.72,498.925 1458.5,507.5C 1459.61,508.723 1459.78,510.056 1459,511.5C 1457.12,516.329 1454.95,520.995 1452.5,525.5C 1439.36,517.934 1425.36,515.434 1410.5,518C 1400.37,520.459 1396.53,526.626 1399,536.5C 1401.26,539.433 1404.1,541.6 1407.5,543C 1418.46,546.156 1429.46,549.156 1440.5,552C 1464.33,560.835 1470.49,576.668 1459,599.5C 1449.32,609.776 1437.49,615.109 1423.5,615.5 Z"/></g>
<g><path style="opacity:0.952" fill="#fefffe" d="M 803.5,500.5 C 810.833,500.5 818.167,500.5 825.5,500.5C 825.5,531.833 825.5,563.167 825.5,594.5C 845.167,594.5 864.833,594.5 884.5,594.5C 884.5,600.833 884.5,607.167 884.5,613.5C 857.5,613.5 830.5,613.5 803.5,613.5C 803.5,575.833 803.5,538.167 803.5,500.5 Z"/></g>
<g><path style="opacity:0.955" fill="#fefffe" d="M 1014.5,500.5 C 1022.09,500.186 1029.59,500.519 1037,501.5C 1053.84,538.684 1070.67,575.851 1087.5,613C 1079.83,613.667 1072.17,613.667 1064.5,613C 1060.43,605.026 1056.76,596.859 1053.5,588.5C 1034.83,587.167 1016.17,587.167 997.5,588.5C 994.12,596.809 990.454,604.976 986.5,613C 979.174,613.5 971.841,613.666 964.5,613.5C 980.888,575.722 997.555,538.055 1014.5,500.5 Z M 1024.5,523.5 C 1025.79,524.058 1026.62,525.058 1027,526.5C 1033.07,540.874 1039.24,555.208 1045.5,569.5C 1032.17,570.833 1018.83,570.833 1005.5,569.5C 1012.23,554.292 1018.57,538.959 1024.5,523.5 Z"/></g>
<g><path style="opacity:0.963" fill="#fefffe" d="M 1180.5,500.5 C 1202.5,500.333 1224.5,500.5 1246.5,501C 1271.21,505.258 1280.05,519.425 1273,543.5C 1270.5,548 1267,551.5 1262.5,554C 1278.71,561.936 1284.55,574.769 1280,592.5C 1276.26,602.572 1269.09,608.739 1258.5,611C 1254.89,611.945 1251.22,612.612 1247.5,613C 1225.17,613.5 1202.84,613.667 1180.5,613.5C 1180.5,575.833 1180.5,538.167 1180.5,500.5 Z M 1202.5,517.5 C 1215.89,517.075 1229.23,517.575 1242.5,519C 1252.58,522.542 1255.74,529.375 1252,539.5C 1249.64,542.869 1246.47,545.036 1242.5,546C 1229.22,547.403 1215.88,547.903 1202.5,547.5C 1202.5,537.5 1202.5,527.5 1202.5,517.5 Z M 1202.5,564.5 C 1217.54,564.104 1232.54,564.604 1247.5,566C 1258.24,569.516 1261.74,576.682 1258,587.5C 1255.07,591.381 1251.24,593.881 1246.5,595C 1231.87,596.351 1217.2,596.851 1202.5,596.5C 1202.5,585.833 1202.5,575.167 1202.5,564.5 Z"/></g>
</svg>
